# xmcd
#
# Track frame offsets:
#	150
#	21795
#	38575
#	56782
#	82855
#	96942
#	113505
#	131412
#	150160
#	166752
#	190380
#	203717
#	221197
#	238417
#	252197
#
# Disc length: 3499 seconds
#
# Revision: 1
# Processed by: cddbd v1.5.1PL0 Copyright (c) Steve Scherf et al.
# Submitted via: audiograbber 1.83.01
#
DISCID=bf0da90f
DTITLE=Ismail Türüt - Piryoz 2
DYEAR=2005
DGENRE=Karadeniz
TTITLE0=Babasindan Istedim
TTITLE1=Gönlümün Aleynasi
TTITLE2=Viya Viya
TTITLE3=Zigana
TTITLE4=E.Emine Emine
TTITLE5=Ben Seni Sevdigimi
TTITLE6=Ayvamisin Narmisin
TTITLE7=E Kiz Kocami Aldin
TTITLE8=Niz Variz Alti Gardas
TTITLE9=Dünden Bugüne
TTITLE10=Egildimde Su Ictim
TTITLE11=Askim Askim
TTITLE12=Gökte Ucan Teyyare
TTITLE13=Öyle Deme
TTITLE14=Samyeli
EXTD=
EXTT0=
EXTT1=
EXTT2=
EXTT3=
EXTT4=
EXTT5=
EXTT6=
EXTT7=
EXTT8=
EXTT9=
EXTT10=
EXTT11=
EXTT12=
EXTT13=
EXTT14=
PLAYORDER=
